# xmcd CD database file
#
# Track frame offsets:
#	150
#	30410
#	52353
#	75271
#	100138
#	125735
#	150075
#	172553
#
# Disc length: 2644 seconds
#
# Revision: 0
# Processed by: cddbd v1.5PL3 Copyright (c) Steve Scherf et al.
# Submitted via: CDex 1.51
#
DISCID=4e0a5208
DTITLE=Jeremy Monteiro Trio - Smoke Gets In Ur Eyes
DYEAR=1999
DGENRE=Jazz
TTITLE0=Tenderly
TTITLE1=The Shadows Of Ur Smile
TTITLE2=Stardust
TTITLE3=Autumn Leaves
TTITLE4=Unforgettable
TTITLE5=Smoke Gets In Ur Eyes
TTITLE6=Misty
TTITLE7=Days Of Wine And Roses
EXTD=YEAR: 1999
EXTT0=
EXTT1=
EXTT2=
EXTT3=
EXTT4=
EXTT5=
EXTT6=
EXTT7=
PLAYORDER=
